<svg xmlns="http://www.w3.org/2000/svg" width="980" height="420" viewBox="0 0 980 420">
<style>text{font-family:Arial,sans-serif;font-size:12px;} .small{font-size:10px;} .title{font-size:16px;font-weight:bold;} .axis{stroke:#333;stroke-width:1;} .grid{stroke:#ddd;stroke-width:1;} </style>
<text x="20" y="24" class="title">Shared vs private: FastQC module-status counts</text>
<text x="10" y="58" class="small">per_tile_sequence_quality</text>
<rect x="180" y="40" width="180" height="20" fill="#f2f2f2" stroke="#ccc"/>
<rect x="180" y="40" width="83.07692307692308" height="20" fill="#2ca02c"/>
<text x="221.53846153846155" y="54" text-anchor="middle" class="small">24</text>
<rect x="263.0769230769231" y="40" width="0.0" height="20" fill="#ffbf00"/>
<rect x="263.0769230769231" y="40" width="96.92307692307692" height="20" fill="#d62728"/>
<text x="311.53846153846155" y="54" text-anchor="middle" class="small">28</text>
<text x="270.0" y="76" text-anchor="middle">Shared</text>
<rect x="400" y="40" width="180" height="20" fill="#f2f2f2" stroke="#ccc"/>
<rect x="400" y="40" width="83.07692307692308" height="20" fill="#2ca02c"/>
<text x="441.53846153846155" y="54" text-anchor="middle" class="small">24</text>
<rect x="483.0769230769231" y="40" width="0.0" height="20" fill="#ffbf00"/>
<rect x="483.0769230769231" y="40" width="96.92307692307692" height="20" fill="#d62728"/>
<text x="531.5384615384615" y="54" text-anchor="middle" class="small">28</text>
<text x="490.0" y="76" text-anchor="middle">Private</text>
<text x="10" y="108" class="small">per_base_sequence_content</text>
<rect x="180" y="90" width="180" height="20" fill="#f2f2f2" stroke="#ccc"/>
<rect x="180" y="90" width="0.0" height="20" fill="#2ca02c"/>
<rect x="180.0" y="90" width="90.0" height="20" fill="#ffbf00"/>
<text x="225.0" y="104" text-anchor="middle" class="small">26</text>
<rect x="270.0" y="90" width="90.0" height="20" fill="#d62728"/>
<text x="315.0" y="104" text-anchor="middle" class="small">26</text>
<text x="270.0" y="126" text-anchor="middle">Shared</text>
<rect x="400" y="90" width="180" height="20" fill="#f2f2f2" stroke="#ccc"/>
<rect x="400" y="90" width="0.0" height="20" fill="#2ca02c"/>
<rect x="400.0" y="90" width="90.0" height="20" fill="#ffbf00"/>
<text x="445.0" y="104" text-anchor="middle" class="small">26</text>
<rect x="490.0" y="90" width="90.0" height="20" fill="#d62728"/>
<text x="535.0" y="104" text-anchor="middle" class="small">26</text>
<text x="490.0" y="126" text-anchor="middle">Private</text>
<text x="10" y="158" class="small">per_sequence_gc_content</text>
<rect x="180" y="140" width="180" height="20" fill="#f2f2f2" stroke="#ccc"/>
<rect x="180" y="140" width="93.46153846153847" height="20" fill="#2ca02c"/>
<text x="226.73076923076923" y="154" text-anchor="middle" class="small">27</text>
<rect x="273.46153846153845" y="140" width="86.53846153846153" height="20" fill="#ffbf00"/>
<text x="316.7307692307692" y="154" text-anchor="middle" class="small">25</text>
<rect x="360.0" y="140" width="0.0" height="20" fill="#d62728"/>
<text x="270.0" y="176" text-anchor="middle">Shared</text>
<rect x="400" y="140" width="180" height="20" fill="#f2f2f2" stroke="#ccc"/>
<rect x="400" y="140" width="93.46153846153847" height="20" fill="#2ca02c"/>
<text x="446.7307692307692" y="154" text-anchor="middle" class="small">27</text>
<rect x="493.46153846153845" y="140" width="86.53846153846153" height="20" fill="#ffbf00"/>
<text x="536.7307692307692" y="154" text-anchor="middle" class="small">25</text>
<rect x="580.0" y="140" width="0.0" height="20" fill="#d62728"/>
<text x="490.0" y="176" text-anchor="middle">Private</text>
<text x="10" y="208" class="small">sequence_length_distribution</text>
<rect x="180" y="190" width="180" height="20" fill="#f2f2f2" stroke="#ccc"/>
<rect x="180" y="190" width="0.0" height="20" fill="#2ca02c"/>
<rect x="180.0" y="190" width="180.0" height="20" fill="#ffbf00"/>
<text x="270.0" y="204" text-anchor="middle" class="small">52</text>
<rect x="360.0" y="190" width="0.0" height="20" fill="#d62728"/>
<text x="270.0" y="226" text-anchor="middle">Shared</text>
<rect x="400" y="190" width="180" height="20" fill="#f2f2f2" stroke="#ccc"/>
<rect x="400" y="190" width="0.0" height="20" fill="#2ca02c"/>
<rect x="400.0" y="190" width="180.0" height="20" fill="#ffbf00"/>
<text x="490.0" y="204" text-anchor="middle" class="small">52</text>
<rect x="580.0" y="190" width="0.0" height="20" fill="#d62728"/>
<text x="490.0" y="226" text-anchor="middle">Private</text>
<text x="10" y="258" class="small">sequence_duplication_levels</text>
<rect x="180" y="240" width="180" height="20" fill="#f2f2f2" stroke="#ccc"/>
<rect x="180" y="240" width="0.0" height="20" fill="#2ca02c"/>
<rect x="180.0" y="240" width="0.0" height="20" fill="#ffbf00"/>
<rect x="180.0" y="240" width="180.0" height="20" fill="#d62728"/>
<text x="270.0" y="254" text-anchor="middle" class="small">52</text>
<text x="270.0" y="276" text-anchor="middle">Shared</text>
<rect x="400" y="240" width="180" height="20" fill="#f2f2f2" stroke="#ccc"/>
<rect x="400" y="240" width="0.0" height="20" fill="#2ca02c"/>
<rect x="400.0" y="240" width="0.0" height="20" fill="#ffbf00"/>
<rect x="400.0" y="240" width="180.0" height="20" fill="#d62728"/>
<text x="490.0" y="254" text-anchor="middle" class="small">52</text>
<text x="490.0" y="276" text-anchor="middle">Private</text>
<text x="10" y="308" class="small">overrepresented_sequences</text>
<rect x="180" y="290" width="180" height="20" fill="#f2f2f2" stroke="#ccc"/>
<rect x="180" y="290" width="176.53846153846155" height="20" fill="#2ca02c"/>
<text x="268.2692307692308" y="304" text-anchor="middle" class="small">51</text>
<rect x="356.53846153846155" y="290" width="3.4615384615384617" height="20" fill="#ffbf00"/>
<text x="358.2692307692308" y="304" text-anchor="middle" class="small">1</text>
<rect x="360.0" y="290" width="0.0" height="20" fill="#d62728"/>
<text x="270.0" y="326" text-anchor="middle">Shared</text>
<rect x="400" y="290" width="180" height="20" fill="#f2f2f2" stroke="#ccc"/>
<rect x="400" y="290" width="180.0" height="20" fill="#2ca02c"/>
<text x="490.0" y="304" text-anchor="middle" class="small">52</text>
<rect x="580.0" y="290" width="0.0" height="20" fill="#ffbf00"/>
<rect x="580.0" y="290" width="0.0" height="20" fill="#d62728"/>
<text x="490.0" y="326" text-anchor="middle">Private</text>
<text x="10" y="358" class="small">adapter_content</text>
<rect x="180" y="340" width="180" height="20" fill="#f2f2f2" stroke="#ccc"/>
<rect x="180" y="340" width="180.0" height="20" fill="#2ca02c"/>
<text x="270.0" y="354" text-anchor="middle" class="small">52</text>
<rect x="360.0" y="340" width="0.0" height="20" fill="#ffbf00"/>
<rect x="360.0" y="340" width="0.0" height="20" fill="#d62728"/>
<text x="270.0" y="376" text-anchor="middle">Shared</text>
<rect x="400" y="340" width="180" height="20" fill="#f2f2f2" stroke="#ccc"/>
<rect x="400" y="340" width="180.0" height="20" fill="#2ca02c"/>
<text x="490.0" y="354" text-anchor="middle" class="small">52</text>
<rect x="580.0" y="340" width="0.0" height="20" fill="#ffbf00"/>
<rect x="580.0" y="340" width="0.0" height="20" fill="#d62728"/>
<text x="490.0" y="376" text-anchor="middle">Private</text>
<rect x="650" y="55" width="12" height="12" fill="#2ca02c"/>
<text x="668" y="65">pass</text>
<rect x="650" y="75" width="12" height="12" fill="#ffbf00"/>
<text x="668" y="85">warn</text>
<rect x="650" y="95" width="12" height="12" fill="#d62728"/>
<text x="668" y="105">fail</text>
</svg>